<?xml version="1.0" encoding="UTF-8" standalone="no"?>
<!-- Created with Inkscape (http://www.inkscape.org/) -->

<svg
   xmlns:dc="http://purl.org/dc/elements/1.1/"
   xmlns:cc="http://creativecommons.org/ns#"
   xmlns:rdf="http://www.w3.org/1999/02/22-rdf-syntax-ns#"
   xmlns:svg="http://www.w3.org/2000/svg"
   xmlns="http://www.w3.org/2000/svg"
   xmlns:sodipodi="http://sodipodi.sourceforge.net/DTD/sodipodi-0.dtd"
   xmlns:inkscape="http://www.inkscape.org/namespaces/inkscape"
   width="744.09448819"
   height="1052.3622047"
   id="svg2"
   version="1.1"
   inkscape:version="0.48.4 r9939"
   sodipodi:docname="header.svg">
  <defs
     id="defs4">
    <filter
       inkscape:collect="always"
       id="filter3830"
       x="-0.037361152"
       width="1.0747223"
       y="-0.15226347"
       height="1.3045269">
      <feGaussianBlur
         inkscape:collect="always"
         stdDeviation="9.8277344"
         id="feGaussianBlur3832" />
    </filter>
  </defs>
  <sodipodi:namedview
     id="base"
     pagecolor="#000000"
     bordercolor="#666666"
     borderopacity="1.0"
     inkscape:pageopacity="0.03529412"
     inkscape:pageshadow="2"
     inkscape:zoom="0.98994949"
     inkscape:cx="320.52716"
     inkscape:cy="499.21261"
     inkscape:document-units="px"
     inkscape:current-layer="layer1"
     showgrid="false"
     inkscape:window-width="1920"
     inkscape:window-height="1019"
     inkscape:window-x="-9"
     inkscape:window-y="-9"
     inkscape:window-maximized="1" />
  <metadata
     id="metadata7">
    <rdf:RDF>
      <cc:Work
         rdf:about="">
        <dc:format>image/svg+xml</dc:format>
        <dc:type
           rdf:resource="http://purl.org/dc/dcmitype/StillImage" />
        <dc:title></dc:title>
      </cc:Work>
    </rdf:RDF>
  </metadata>
  <g
     inkscape:label="Layer 1"
     inkscape:groupmode="layer"
     id="layer1">
    <text
       xml:space="preserve"
       style="font-size:219.97842407px;font-style:normal;font-variant:normal;font-weight:normal;font-stretch:normal;text-align:start;line-height:125%;letter-spacing:0px;word-spacing:0px;writing-mode:lr-tb;text-anchor:start;fill:#000000;fill-opacity:1;stroke:none;font-family:Chiller;-inkscape-font-specification:Chiller"
       x="11.484564"
       y="523.22589"
       id="text2986"
       sodipodi:linespacing="125%"
       inkscape:export-filename="F:\Unity\TheSzpulka\Assets\Graphic\header3.png"
       inkscape:export-xdpi="90"
       inkscape:export-ydpi="90"><tspan
         sodipodi:role="line"
         id="tspan2988"
         x="11.484564"
         y="523.22589"
         style="font-size:219.97842407px;font-style:normal;font-variant:normal;font-weight:normal;font-stretch:normal;text-align:start;line-height:125%;writing-mode:lr-tb;text-anchor:start;fill:#ffffff;fill-opacity:1;font-family:Chiller;-inkscape-font-specification:Chiller">Nightmare</tspan></text>
    <g
       id="g2996"
       transform="matrix(0.36182618,0,0,0.36182618,346.16324,533.43612)"
       inkscape:export-filename="F:\Unity\TheSzpulka\Assets\Graphic\footer.png"
       inkscape:export-xdpi="90"
       inkscape:export-ydpi="90">
      <g
         inkscape:export-ydpi="90"
         inkscape:export-xdpi="90"
         inkscape:export-filename="F:\Unity\Steering\Assets\Graphic\header2.png"
         transform="matrix(1.0005863,0,0,1.0005863,-0.01876099,-0.3164635)"
         id="text3906"
         style="font-size:130.34729004px;font-style:normal;font-variant:normal;font-weight:normal;font-stretch:normal;text-align:start;line-height:125%;letter-spacing:0px;word-spacing:0px;writing-mode:lr-tb;text-anchor:start;fill:#323232;fill-opacity:1;stroke:#000000;stroke-width:13.81879044;stroke-miterlimit:4;stroke-opacity:1;stroke-dasharray:none;filter:url(#filter3830);font-family:Comic Sans MS;-inkscape-font-specification:Comic Sans MS">
        <path
           style="fill:#323232;fill-opacity:1;stroke:#000000;stroke-width:13.81879044;stroke-miterlimit:4;stroke-opacity:1;stroke-dasharray:none"
           d="m 513.78125,382.375 c -7.06249,4e-4 -15.7801,3.30859 -21.15625,8.40625 -5.36764,5.09043 -8.96315,13.77186 -9.28125,20.9375 -4.91241,0.10291 -10.01331,1.11421 -14.59375,3.125 a 24.210762,24.210762 0 0 0 -0.34375,0.125 c 0.0596,-0.0272 -3.49873,1.33385 -8.59375,2.78125 -4.89276,1.39004 -8.75483,2.67154 -12.5,4.15625 -1.63548,-3.92631 -3.5347,-7.73747 -5.875,-11.3125 a 24.210762,24.210762 0 0 0 0,-0.0312 c -9.85955,-15.0238 -28.27631,-25.21859 -46.34375,-25.21875 -14.79077,1.2e-4 -29.44414,6.68772 -40.125,17.0625 -10.34733,-10.40224 -25.02526,-17.06237 -39.5625,-17.0625 -19.20243,1.6e-4 -38.20981,11.19844 -48.53125,27.21875 a 24.210762,24.210762 0 0 0 -0.0625,0.0937 c -1.29501,2.02698 -2.28346,4.20887 -3.375,6.34375 -4.31634,-1.67349 -8.74574,-2.71871 -12.9375,-2.71875 -5.07481,5e-5 -9.82738,0.98617 -14.28125,2.59375 -4.74702,-2.51379 -9.95858,-4.06242 -14.3125,-4.0625 -6.8598,2.7e-4 -15.31974,3.20295 -20.75,8.15625 -0.22895,-0.0969 -0.45881,-0.24931 -0.6875,-0.34375 -0.0301,-0.0125 -0.0636,-0.0187 -0.0937,-0.0312 -6.65087,-2.76193 -13.74798,-4.7186 -21.625,-4.71875 -6.77107,5e-5 -13.5505,1.35805 -19.96875,3.71875 0.0898,-1.15037 0.2812,-2.09677 0.28125,-3.4375 -2.9e-4,-7.60177 -4.16269,-17.35566 -10.125,-22.65625 -5.19622,-4.61823 -13.31909,-7.90582 -20.65625,-7.90625 -10.626,3.9e-4 -23.33562,9.46445 -27.65625,18.125 l -0.0937,-0.0625 c -1.427895,2.97994 -2.045062,4.09117 -3.09375,6.15625 -0.62827,-0.93717 -0.795473,-1.26813 -1.5,-2.3125 l -0.28125,-0.40625 -4.8125,-7.5 A 24.210762,24.210762 0 0 0 90.3125,400.8125 c -4.686997,-6.67504 -15.388291,-13.28079 -25.03125,-13.28125 -7.623197,4.5e-4 -15.993024,3.63172 -21.125,8.4375 -5.543978,5.19235 -9.656258,14.55686 -9.65625,22.25 -1e-5,5.82645 1.802405,11.17591 4.03125,15.1875 2.612934,4.70351 5.570598,9.01252 11.75,18.28125 0.0057,0.009 -0.0057,0.0227 0,0.0312 3.839471,5.78052 6.221421,10.35537 7.1875,12.78125 2.209007,5.54346 5.213433,10.69998 8.71875,15.96875 l -0.5,0.90625 a 24.210762,24.210762 0 0 0 -0.21875,0.375 c -2.147541,4.08944 -3.838592,7.45332 -5.21875,10.59375 -1.380158,3.14043 -3.531446,2.42039 -3.53125,14.21875 -1.02e-4,7.78187 4.152412,17.23198 10,22.53125 5.047833,4.57469 13.145723,8.12495 20.78125,8.125 10.706746,-5e-5 22.39127,-8.38675 26.6875,-15.9375 a 24.210762,24.210762 0 0 0 0.6875,-1.3125 l 3.09375,-6.28125 4.75,-8.46875 c 1.79406,4.76774 4.27836,9.35482 7.75,13.625 0.009,0.0116 0.0218,0.0197 0.0312,0.0312 10.01825,12.33116 26.07549,17.3125 40.5,17.3125 5.61457,0 9.94399,-1.18634 14.09375,-2.59375 2.17954,1.53673 5.32409,3.375 13.09375,3.375 4.22063,0 8.7298,-1.25802 12.8125,-3.15625 3.53158,1.26282 7.12797,2 10.28125,2 6.62359,0 14.99579,-3.07855 20.5625,-8.0625 0.35936,0.38933 0.60986,0.80915 1,1.1875 6.17785,5.99116 14.9214,8.34375 21.125,8.34375 6.983,0 15.73014,-3.11602 21.375,-8.5625 0.35275,-0.34039 0.60354,-0.7923 0.9375,-1.15625 8.3427,4.79069 17.75013,7.6875 27.15625,7.6875 14.6889,0 29.81192,-6.34324 40.40625,-16.84375 10.46158,10.25047 24.88918,16.84375 39.28125,16.84375 11.12804,0 22.5162,-3.65885 32,-9.96875 4.21262,3.37375 8.54822,5.41 12.8125,6.96875 l 0,0.0312 c 0.0401,0.0148 0.0849,0.0165 0.125,0.0312 7.6881,2.82615 15.92679,4.28124 24.1875,4.28125 10.69414,-10e-6 21.4262,-2.06079 31,-7.625 a 24.210762,24.210762 0 0 0 0.125,-0.0625 c 0.47462,-0.27939 0.91027,-0.66304 1.375,-0.96875 5.21535,3.73331 12.10132,6.21875 18.34375,6.21875 7.54393,0 15.94751,-4.66079 21.71875,-10.3125 1.50761,2.19353 3.28669,4.3383 5.59375,6.21875 5.65455,4.60893 13.18841,6.65623 19.03125,6.65625 7.06323,-4e-5 15.57722,-3.24034 20.90625,-8.125 0.24682,-0.22626 0.44744,-0.54084 0.6875,-0.78125 0.48178,0.28309 0.91814,0.67356 1.40625,0.9375 a 24.210762,24.210762 0 0 0 0.25,0.15625 c 8.81536,4.6281 18.75067,6.78125 28.5,6.78125 14.03132,0 28.58074,-5.84514 38.59375,-15.75 10.00192,-9.89408 16.03113,-24.4535 16.03125,-38.5 -10e-5,-8.82653 -2.07821,-18.10677 -6.8125,-26.3125 2.89568,-6.21425 4.53121,-12.8753 4.53125,-19.125 -10e-5,-13.78625 -6.73985,-29.17054 -18.21875,-37.84375 a 24.210762,24.210762 0 0 0 -0.0312,-0.0312 C 634.65688,390.11481 621.71651,387.18764 609,387.1875 c -9.7489,2.7e-4 -16.98952,2.93207 -24.375,6.53125 -0.0334,0.0159 -0.0604,0.0465 -0.0937,0.0625 -0.0297,0.0145 -0.064,0.0167 -0.0937,0.0312 -4.70171,2.25355 -9.177,4.79971 -13.71875,9.3125 -4.14054,4.11414 -8.40194,11.14319 -9.25,19.375 -5.5196,-2.37198 -11.30951,-3.65433 -16.53125,-3.78125 -0.20388,-3.42705 -0.55365,-6.85865 -1.125,-10.34375 -0.006,-0.0394 -0.0248,-0.0855 -0.0312,-0.125 -0.89683,-5.50611 -3.51396,-12.64258 -9.5625,-18.15625 -6.09196,-5.55325 -14.38451,-7.71858 -20.4375,-7.71875 z m -49.34375,92.71875 a 24.210762,24.210762 0 0 0 0,0.0312 c 0.004,-0.001 -0.0951,4.6e-4 -0.0937,0 0.0125,-0.004 0.0836,-0.0281 0.0937,-0.0312 z"
           id="path3928"
           inkscape:original="M 513.78125 406.59375 C 511.99914 406.59385 510.51173 407.17701 509.28125 408.34375 C 508.05075 409.5107 507.43749 410.96801 507.4375 412.75 C 507.43749 414.8292 507.62815 416.85074 508.03125 418.78125 C 508.43434 420.71194 508.62499 422.74237 508.625 424.90625 C 508.62499 426.73086 508.4845 430.26991 508.1875 435.53125 L 508 482.3125 L 507.8125 491.75 C 507.6852 496.88413 507.46443 499.97049 507.125 501.03125 C 506.74311 502.30418 506.53124 503.24973 506.53125 503.84375 C 506.53124 505.54099 507.18464 506.96819 508.5 508.15625 C 509.81534 509.34431 511.35408 509.9375 513.09375 509.9375 C 515.59715 509.9375 517.43692 508.63071 518.625 506 C 519.98276 503.02986 520.65623 493.44739 520.65625 477.28125 C 524.43256 470.23779 527.3985 465.47221 529.5625 462.96875 C 533.80554 458.08927 538.6425 455.6563 544.03125 455.65625 C 548.01969 455.6563 549.99995 459.64807 550 467.625 C 549.99995 468.72824 549.94977 470.40745 549.84375 472.65625 C 549.73763 474.90511 549.68745 476.58433 549.6875 477.6875 C 549.68745 481.63359 550.07995 486.66006 550.84375 492.8125 C 551.64988 499.21956 552.52404 504.17693 553.5 507.65625 C 554.43342 510.88099 556.42486 512.49999 559.4375 512.5 C 561.21953 512.49999 562.72701 511.91684 564 510.75 C 565.27286 509.58315 565.90618 508.11466 565.90625 506.375 C 565.90618 505.86583 565.82591 505.25258 565.65625 504.53125 C 564.80757 500.75492 564.09397 496.40191 563.5 491.4375 L 562.21875 478.1875 L 561.71875 466.03125 C 561.4641 458.39376 560.39814 452.94354 558.53125 449.71875 C 555.90048 445.13629 551.0747 442.87507 544.03125 442.875 C 539.57597 442.87507 535.37349 444.03134 531.40625 446.34375 C 527.43894 448.65628 523.69805 452.14517 520.21875 456.8125 L 520.15625 451.1875 C 520.1138 446.52018 520.21415 441.87502 520.46875 437.25 C 520.76575 432.41297 520.93747 427.76781 520.9375 423.3125 C 520.93747 420.00299 520.58512 416.30337 519.90625 412.1875 C 519.3122 408.45369 517.26055 406.59385 513.78125 406.59375 z M 315.40625 409.5625 C 303.52561 409.5626 294.13494 414.95261 287.21875 425.6875 C 281.3633 434.85261 278.4375 445.57015 278.4375 457.875 C 278.4375 472.42879 280.68983 484.26359 285.1875 493.34375 C 291.12779 505.13951 300.53852 511.03125 313.4375 511.03125 C 325.48778 511.03125 334.53727 506.27571 340.5625 496.75 C 346.5876 487.22432 349.59368 472.94652 349.59375 453.9375 C 349.59368 442.09939 346.88864 432.07539 341.5 423.84375 C 335.26262 414.33935 326.56548 409.5626 315.40625 409.5625 z M 395.09375 409.5625 C 383.21311 409.5626 373.82245 414.95261 366.90625 425.6875 C 361.0508 434.85261 358.12499 445.57015 358.125 457.875 C 358.12499 472.42879 360.37733 484.26359 364.875 493.34375 C 370.81529 505.13951 380.22603 511.03125 393.125 511.03125 C 405.17529 511.03125 414.19352 506.27571 420.21875 496.75 C 426.24384 487.22432 429.28117 472.94652 429.28125 453.9375 C 429.28117 442.09939 426.57613 432.07539 421.1875 423.84375 C 414.95012 414.33935 406.25299 409.5626 395.09375 409.5625 z M 609 411.40625 C 605.35092 411.40635 600.70576 412.8046 595.0625 415.5625 C 588.57057 418.66004 585.34374 421.86681 585.34375 425.21875 C 585.34374 426.87364 585.94696 428.36219 587.15625 429.65625 C 588.36551 430.95047 589.80276 431.59382 591.5 431.59375 C 592.3486 431.59382 593.47476 431.14112 594.875 430.25 L 602.0625 425.75 C 604.77804 424.34987 607.58343 423.62509 610.46875 423.625 C 616.06957 423.62509 620.43376 424.84272 623.53125 427.21875 C 626.50135 429.51009 627.92855 432.51617 627.84375 436.25 C 627.80126 438.83834 627.04752 441.04051 625.5625 442.84375 C 624.07737 444.64712 621.86517 446.06429 618.9375 447.125 L 603.71875 450.875 C 600.02725 452.19041 598.18747 454.09039 598.1875 456.59375 C 598.18747 459.94583 600.54016 461.87706 605.25 462.34375 C 612.12374 463.06512 617.65425 465.06544 621.8125 468.375 C 626.52226 472.1938 628.87494 477.31174 628.875 483.71875 C 628.87494 488.13157 627.03517 491.88251 623.34375 494.9375 C 619.86438 497.82281 615.81241 499.25001 611.1875 499.25 C 607.58085 499.25001 604.46325 498.72707 601.875 497.6875 C 599.2867 496.64796 597.24623 495.07912 595.71875 493 L 592.78125 488.625 C 591.55073 487.05508 590.07222 486.28127 588.375 486.28125 C 586.67776 486.28127 585.20038 486.84436 583.90625 487.96875 C 582.6121 489.09319 581.96874 490.49029 581.96875 492.1875 C 581.96874 492.90884 582.08916 493.64251 582.34375 494.40625 C 584.33798 500.00711 588.20933 504.37131 593.9375 507.46875 C 599.02916 510.14189 604.78042 511.46875 611.1875 511.46875 C 619.6736 511.46875 626.85207 508.55298 632.75 502.71875 C 638.64781 496.88453 641.59368 489.79638 641.59375 481.4375 C 641.59368 475.24265 640.20661 470.07454 637.40625 465.9375 C 634.60576 461.80055 630.36198 458.67291 624.71875 456.59375 C 625.65217 456.29679 626.49737 456.01582 627.21875 455.71875 C 635.28053 452.5365 639.31244 445.97129 639.3125 436 C 639.31244 427.98067 636.44684 421.79677 630.71875 417.46875 C 625.37243 413.43792 618.12257 411.40635 609 411.40625 z M 65.28125 411.75 C 63.584013 411.7501 62.055313 412.37339 60.71875 413.625 C 59.382178 414.8768 58.718748 416.39432 58.71875 418.21875 C 58.718748 419.36447 59.051037 420.51071 59.6875 421.65625 C 60.748265 423.56572 64.327463 429.11629 70.4375 438.28125 C 74.892711 444.98538 78.059345 450.73663 79.96875 455.53125 C 82.217555 461.17458 87.154864 468.88603 94.75 478.6875 L 86.90625 493 C 82.917733 500.59511 80.937476 505.11986 80.9375 506.5625 C 80.937476 508.38702 81.610941 509.92576 82.96875 511.15625 C 84.326506 512.38674 85.845172 512.99999 87.5 513 C 89.87609 512.99999 91.756 511.77348 93.15625 509.3125 L 96.53125 502.4375 L 104.5 488.25 C 108.23385 480.65492 112.19437 471.76599 116.4375 461.625 L 127.40625 434.59375 C 129.1034 431.24179 130.45034 428.73745 131.46875 427.125 C 133.7175 423.09416 134.84368 420.10816 134.84375 418.15625 C 134.84368 416.28939 134.18024 414.78191 132.84375 413.59375 C 131.50711 412.40579 129.97841 411.8126 128.28125 411.8125 C 125.52318 411.8126 123.563 413.2398 122.375 416.125 C 119.44722 422.23511 117.15474 426.75986 115.5 429.6875 L 100.90625 465.1875 C 96.323692 459.07752 93.337679 454.2718 91.9375 450.75 C 90.155375 446.29483 87.682276 441.46905 84.5 436.25 C 83.057328 433.83152 80.091387 429.28671 75.59375 422.625 L 70.5 414.71875 C 69.099772 412.7246 67.360347 411.7501 65.28125 411.75 z M 315.34375 421.84375 C 322.5145 421.84384 327.88329 424.70943 331.46875 430.4375 C 335.05408 436.16572 336.84369 444.78258 336.84375 456.28125 C 336.84369 467.22843 335.49676 476.27792 332.78125 483.40625 C 328.87757 493.67451 322.43277 498.81251 313.4375 498.8125 C 305.88479 498.81251 300.21381 495.31358 296.4375 488.3125 C 292.66114 481.31145 290.78123 470.83476 290.78125 456.875 C 290.78123 448.26162 292.70128 440.57913 296.5625 433.875 C 301.18743 425.85567 307.4516 421.84384 315.34375 421.84375 z M 395.03125 421.84375 C 402.202 421.84384 407.5708 424.70943 411.15625 430.4375 C 414.74159 436.16572 416.53119 444.78258 416.53125 456.28125 C 416.53119 467.22843 415.18426 476.27792 412.46875 483.40625 C 408.56506 493.67451 402.12028 498.81251 393.125 498.8125 C 385.5723 498.81251 379.90132 495.31358 376.125 488.3125 C 372.34865 481.31145 370.46873 470.83476 370.46875 456.875 C 370.46873 448.26162 372.38878 440.57913 376.25 433.875 C 380.87492 425.85567 387.13909 421.84384 395.03125 421.84375 z M 484.125 435.84375 C 482.08828 435.84382 480.20836 436.23632 478.46875 437 C 476.05015 438.10327 472.03832 439.44016 466.4375 441.03125 C 460.83661 442.62247 456.76457 444.01068 454.21875 445.15625 C 445.85988 448.93264 441.68749 455.25703 441.6875 464.125 C 441.68749 468.91972 443.40685 472.49891 446.84375 474.875 C 449.21985 476.52983 453.23169 477.95704 458.875 479.1875 L 465.5 480.65625 C 473.56181 482.69295 477.59371 486.60444 477.59375 492.375 C 477.59371 495.04815 475.60227 496.98827 471.65625 498.21875 C 468.94065 499.06738 465.81415 499.50001 462.25 499.5 C 460.29816 499.50001 457.90533 499.25918 455.0625 498.75 C 451.4983 498.11355 449.20583 497.28842 448.1875 496.3125 C 446.10839 494.27584 444.4091 493.28126 443.09375 493.28125 C 441.39652 493.28126 439.86781 493.91459 438.53125 495.1875 C 437.19467 496.46043 436.53125 497.92778 436.53125 499.625 C 436.53125 503.86808 439.8094 507.18638 446.34375 509.5625 C 451.39299 511.42945 456.69155 512.37499 462.25 512.375 C 469.84507 512.37499 476.12931 510.91654 481.09375 508.03125 C 487.07643 504.5095 490.06245 499.29122 490.0625 492.375 C 490.06245 483.9313 486.60366 477.48651 479.6875 473.03125 C 474.93522 469.97628 467.66529 467.58345 457.90625 465.84375 C 456.67574 465.63164 455.42915 465.27928 454.15625 464.8125 C 454.19866 460.82406 457.63737 457.46562 464.46875 454.75 C 471.08791 452.58609 475.97391 451.11874 479.15625 450.3125 C 479.62295 453.79188 480.176 456.08435 480.8125 457.1875 C 481.74593 458.75748 483.385 459.5313 485.71875 459.53125 C 487.54322 459.5313 489.05185 458.93811 490.21875 457.75 C 491.38554 456.56199 491.96869 455.00319 491.96875 453.09375 C 491.96869 451.86332 491.68658 450.06368 491.15625 447.6875 C 490.62581 445.31144 490.37495 443.51181 490.375 442.28125 C 490.37495 440.37193 489.79179 438.84438 488.625 437.65625 C 487.4581 436.46826 485.94947 435.84382 484.125 435.84375 z M 221.90625 439.03125 C 220.12415 439.03132 218.64676 439.61448 217.4375 440.78125 C 216.22821 441.94817 215.62499 443.45679 215.625 445.28125 C 215.62499 446.63909 215.69523 448.63942 215.84375 451.3125 C 215.99221 453.98569 216.06249 456.01727 216.0625 457.375 C 216.06249 461.74542 215.74023 467.78767 215.125 475.53125 C 214.50974 483.27488 214.21874 489.3484 214.21875 493.71875 C 214.21874 494.99168 214.34919 496.89167 214.625 499.4375 C 214.90079 501.98335 215.03124 503.88333 215.03125 505.15625 C 215.03124 507.06564 215.60436 508.62444 216.75 509.8125 C 217.89562 511.00056 219.41428 511.59375 221.28125 511.59375 C 223.10576 511.59375 224.58314 511.00056 225.75 509.8125 C 226.91683 508.62444 227.49998 507.06564 227.5 505.15625 C 227.49998 503.88333 227.37957 501.98335 227.125 499.4375 C 226.8704 496.89167 226.74998 494.99168 226.75 493.71875 C 226.74998 491.72452 226.8704 489.65281 227.125 487.53125 C 227.422 485.02786 227.63385 482.96733 227.71875 481.3125 C 229.92513 473.46285 232.97135 466.94667 236.875 461.8125 C 241.20291 456.16926 245.74771 453.37505 250.5 453.375 C 253.89441 453.37505 255.5937 457.92876 255.59375 467.09375 C 255.5937 468.28185 255.49221 470.31342 255.34375 473.15625 C 255.19519 475.99914 255.12495 477.99947 255.125 479.1875 C 255.12495 483.51546 255.43717 488.16062 256.03125 493.125 L 257.8125 507.09375 C 258.27919 511.08224 260.31965 513.0625 263.96875 513.0625 C 265.79321 513.0625 267.32191 512.47934 268.53125 511.3125 C 269.74046 510.14565 270.34369 508.61695 270.34375 506.75 C 270.34369 503.27068 269.88095 498.76715 268.96875 493.1875 C 268.05643 487.60787 267.62494 483.05303 267.625 479.53125 L 267.6875 473.59375 L 267.6875 467.1875 C 267.51772 459.38029 266.51196 453.4573 264.6875 449.46875 C 262.0143 443.48608 257.28887 440.50007 250.5 440.5 C 242.98972 440.50007 235.65959 445.24558 228.53125 454.75 L 228.34375 447.3125 C 227.96185 441.79657 225.80986 439.03132 221.90625 439.03125 z M 178.75 442.09375 C 168.94847 442.09382 160.53345 445.73322 153.46875 453.03125 C 146.40403 460.32938 142.875 469.13804 142.875 479.40625 C 142.875 490.26854 144.99574 498.33235 149.28125 503.59375 C 153.82133 509.19461 161.07119 511.96875 171 511.96875 C 173.07908 511.96875 175.65252 511.40566 178.75 510.28125 C 181.84741 509.15683 185.45785 507.5189 189.53125 505.3125 C 190.46468 506.67028 191.87182 508.19784 193.78125 509.9375 C 195.90273 511.80445 197.38125 512.75 198.1875 512.75 C 199.75737 512.75 201.12438 512.19695 202.3125 511.09375 C 203.5005 509.99055 204.09368 508.57223 204.09375 506.875 L 203.71875 505.8125 C 203.03979 504.32743 202.54695 503.20126 202.25 502.4375 C 200.00111 496.83665 198.67425 493.08572 198.25 491.21875 C 197.48619 488.16375 197.11375 484.01143 197.15625 478.75 C 197.19862 472.97945 197.32907 468.25401 197.5625 464.5625 C 197.79581 460.87107 198.13814 458.20617 198.5625 456.59375 C 199.41106 455.70276 199.81243 454.70818 199.8125 453.5625 C 199.81243 450.21052 196.92678 447.34493 191.15625 444.96875 C 186.57368 443.05943 182.44144 442.09382 178.75 442.09375 z M 179.59375 453.375 C 180.2726 453.37505 181.1568 453.55568 182.28125 453.9375 C 183.40563 454.31943 184.77377 454.91262 186.34375 455.71875 C 185.87697 458.13736 185.51458 460.4198 185.28125 462.5625 C 185.04784 464.7053 184.93745 466.67552 184.9375 468.5 C 184.93745 474.10089 185.61091 482.53713 186.96875 493.78125 C 184.2107 496.19982 182.05871 497.81883 180.53125 498.625 C 177.68835 500.11009 174.22957 500.84375 170.15625 500.84375 C 165.23426 500.84375 161.55471 499.10433 159.09375 495.625 C 156.63275 492.1457 155.40624 486.92742 155.40625 479.96875 C 155.40624 472.96771 157.78902 466.77379 162.5625 461.40625 C 167.33593 456.03881 173.01695 453.37505 179.59375 453.375 z "
           inkscape:radius="24.208342"
           sodipodi:type="inkscape:offset" />
      </g>
      <text
         inkscape:export-ydpi="90"
         inkscape:export-xdpi="90"
         inkscape:export-filename="F:\Unity\Steering\Assets\Graphic\header2.png"
         sodipodi:linespacing="125%"
         id="text3902"
         y="508.54294"
         x="56.878166"
         style="font-size:130.34729004px;font-style:normal;font-variant:normal;font-weight:normal;font-stretch:normal;text-align:start;line-height:125%;letter-spacing:0px;word-spacing:0px;writing-mode:lr-tb;text-anchor:start;fill:#000000;fill-opacity:1;stroke:none;font-family:Comic Sans MS;-inkscape-font-specification:Comic Sans MS"
         xml:space="preserve"><tspan
           y="508.54294"
           x="56.878166"
           id="tspan3904"
           sodipodi:role="line">Yan00sh3</tspan></text>
    </g>
    <text
       xml:space="preserve"
       style="font-size:39.68684386999999700px;font-style:normal;font-variant:normal;font-weight:normal;font-stretch:normal;line-height:125%;letter-spacing:0px;word-spacing:0px;fill:#ffffff;fill-opacity:1;stroke:none;font-family:EngraversGothic BT;-inkscape-font-specification:EngraversGothic BT"
       x="346.008"
       y="651.46271"
       id="text3002"
       sodipodi:linespacing="125%"
       inkscape:export-filename="F:\Unity\TheSzpulka\Assets\Graphic\footer.png"
       inkscape:export-xdpi="90"
       inkscape:export-ydpi="90"><tspan
         sodipodi:role="line"
         id="tspan3004"
         x="346.008"
         y="651.46271"
         style="font-size:39.68684386999999700px;font-style:normal;font-variant:normal;font-weight:normal;font-stretch:normal;text-align:start;line-height:125%;writing-mode:lr-tb;text-anchor:start;font-family:Candara;-inkscape-font-specification:Candara;fill:#ffffff;fill-opacity:1">epic szpulka by</tspan></text>
  </g>
</svg>
